<?xml version="1.0" encoding="utf-8"?>
<!-- Generator: Adobe Illustrator 15.1.0, SVG Export Plug-In  -->
<!DOCTYPE svg PUBLIC "-//W3C//DTD SVG 1.1//EN" "http://www.w3.org/Graphics/SVG/1.1/DTD/svg11.dtd" [
	<!ENTITY ns_flows "http://ns.adobe.com/Flows/1.0/">
]>
<svg version="1.1"
	 xmlns="http://www.w3.org/2000/svg" xmlns:xlink="http://www.w3.org/1999/xlink" xmlns:a="http://ns.adobe.com/AdobeSVGViewerExtensions/3.0/"
	 x="0px" y="0px" width="16px" height="16px" viewBox="-4.638 -1.982 16 16" enable-background="new -4.638 -1.982 16 16"
	 xml:space="preserve">
<defs>
</defs>
<path d="M1.727,6.014C1.825,5.91,1.907,5.818,1.993,5.732C3.479,4.246,4.965,2.76,6.451,1.274c0.316-0.316,0.361-0.705,0.118-1.025
	C6.353-0.04,5.887-0.085,5.532,0.155C5.431,0.223,5.335,0.303,5.248,0.389c-1.632,1.629-3.254,3.27-4.9,4.884
	C-0.116,5.728-0.116,6.3,0.349,6.756c1.663,1.629,3.299,3.288,4.947,4.932c0.231,0.231,0.477,0.408,0.846,0.326
	c0.316-0.069,0.472-0.251,0.552-0.546c0.074-0.271-0.011-0.484-0.195-0.668C4.997,9.298,3.495,7.797,1.993,6.294
	C1.905,6.208,1.825,6.117,1.727,6.014"/>
</svg>
