<?xml version="1.0" encoding="utf-8"?>
<!-- Generator: Adobe Illustrator 15.1.0, SVG Export Plug-In  -->
<!DOCTYPE svg PUBLIC "-//W3C//DTD SVG 1.1//EN" "http://www.w3.org/Graphics/SVG/1.1/DTD/svg11.dtd" [
	<!ENTITY ns_flows "http://ns.adobe.com/Flows/1.0/">
]>
<svg version="1.1"
	 xmlns="http://www.w3.org/2000/svg" xmlns:xlink="http://www.w3.org/1999/xlink" xmlns:a="http://ns.adobe.com/AdobeSVGViewerExtensions/3.0/"
	 x="0px" y="0px" width="16px" height="16px" viewBox="-4.638 -1.982 16 16" enable-background="new -4.638 -1.982 16 16"
	 xml:space="preserve">
<defs>
</defs>
<path d="M4.998,6.014C4.899,5.91,4.817,5.818,4.731,5.732C3.245,4.246,1.759,2.76,0.273,1.274c-0.316-0.316-0.361-0.705-0.119-1.025
	C0.372-0.04,0.838-0.085,1.192,0.155C1.294,0.223,1.39,0.303,1.477,0.389c1.632,1.629,3.254,3.27,4.9,4.884
	C6.841,5.728,6.841,6.3,6.376,6.756c-1.663,1.629-3.299,3.288-4.947,4.932c-0.231,0.231-0.477,0.408-0.846,0.326
	c-0.316-0.069-0.472-0.251-0.551-0.546c-0.075-0.271,0.011-0.484,0.195-0.668C1.727,9.298,3.23,7.797,4.731,6.294
	C4.819,6.208,4.899,6.117,4.998,6.014"/>
</svg>
