<?xml version="1.0" encoding="utf-8"?>
<!-- Generator: Adobe Illustrator 15.1.0, SVG Export Plug-In  -->
<!DOCTYPE svg PUBLIC "-//W3C//DTD SVG 1.1//EN" "http://www.w3.org/Graphics/SVG/1.1/DTD/svg11.dtd" [
	<!ENTITY ns_flows "http://ns.adobe.com/Flows/1.0/">
]>
<svg version="1.1"
	 xmlns="http://www.w3.org/2000/svg" xmlns:xlink="http://www.w3.org/1999/xlink" xmlns:a="http://ns.adobe.com/AdobeSVGViewerExtensions/3.0/"
	 x="0px" y="0px" width="16px" height="16px" viewBox="0 0 16 16" enable-background="new 0 0 16 16" xml:space="preserve">
<defs>
</defs>
<path d="M7.983,0.84c3.94,0,7.143,3.204,7.143,7.142c0,3.939-3.203,7.143-7.143,7.143c-3.938,0-7.142-3.203-7.142-7.143
	C0.841,4.044,4.044,0.84,7.983,0.84 M7.983,0C3.574,0,0,3.573,0,7.982s3.574,7.982,7.983,7.982c4.41,0,7.983-3.573,7.983-7.982
	S12.393,0,7.983,0"/>
<path d="M9.6,7.674C9.531,7.602,9.474,7.539,9.415,7.479C8.387,6.45,7.357,5.421,6.329,4.394c-0.219-0.219-0.25-0.488-0.082-0.71
	c0.15-0.2,0.473-0.231,0.718-0.065c0.07,0.047,0.137,0.102,0.196,0.162c1.13,1.127,2.253,2.263,3.392,3.38
	c0.32,0.315,0.32,0.711,0,1.027c-1.152,1.127-2.284,2.276-3.425,3.415c-0.16,0.16-0.33,0.281-0.585,0.227
	c-0.219-0.049-0.327-0.175-0.382-0.38c-0.051-0.187,0.008-0.334,0.135-0.462c1.039-1.04,2.079-2.08,3.119-3.12
	C9.476,7.809,9.531,7.746,9.6,7.674"/>
</svg>
