<svg width="15" height="16" viewBox="0 0 15 16" fill="none" xmlns="http://www.w3.org/2000/svg">
<path d="M13.7987 1.61066C13.0819 0.89378 12.1227 0.5 11.0988 0.5C10.075 0.5 9.08348 0.903877 8.35044 1.63893L7.3145 2.67488C6.1796 3.80977 5.89083 5.47375 6.45424 6.86511L7.94859 5.37076C7.96272 4.84976 8.1687 4.33078 8.56854 3.92892L9.60448 2.89297C10.0043 2.49313 10.5334 2.27504 11.0988 2.27504C11.6643 2.27504 12.163 2.48506 12.5447 2.86672C13.3484 3.67044 13.3363 4.9891 12.5185 5.80695L11.4825 6.84289C11.0968 7.22859 10.5879 7.44467 10.0427 7.4588L8.54431 8.95719C8.99463 9.13893 9.48332 9.23586 9.98615 9.23586C11.0241 9.23586 12.0015 8.83199 12.7345 8.09693L13.7705 7.06099C15.279 5.55049 15.2911 3.10703 13.7967 1.61268L13.7987 1.61066Z" fill="black"/>
<path d="M7.04567 10.6333C7.03153 11.1765 6.81546 11.6874 6.42976 12.0731L5.39381 13.109C4.99397 13.5089 4.46489 13.727 3.89947 13.727C3.33404 13.727 2.83525 13.517 2.45561 13.1353C1.65189 12.3316 1.66401 11.0129 2.48186 10.1951L3.5178 9.15913C3.90351 8.77343 4.41239 8.55735 4.95561 8.54322L6.45399 7.04483C6.00367 6.86309 5.51699 6.76616 5.01417 6.76616C3.9762 6.76616 2.99882 7.17003 2.26578 7.90509L1.22984 8.94103C-0.278643 10.4495 -0.292779 12.895 1.20359 14.3893C1.92047 15.1062 2.87968 15.5 3.90351 15.5C4.92733 15.5 5.91885 15.0961 6.65189 14.3611L7.68783 13.3251C8.41481 12.5981 8.81869 11.6309 8.82677 10.601C8.83081 10.088 8.73388 9.59128 8.54809 9.13288L7.04971 10.6313L7.04567 10.6333Z" fill="black"/>
<path d="M5.04658 10.4536C5.22025 10.6272 5.44642 10.7141 5.67461 10.7141C5.9028 10.7141 6.12897 10.6272 6.30264 10.4536L9.95369 6.80251C10.301 6.45517 10.299 5.89379 9.95369 5.54847C9.60636 5.20114 9.04497 5.20114 8.69965 5.54847L5.0486 9.19952C4.70127 9.54685 4.70127 10.1082 5.0486 10.4536H5.04658Z" fill="black"/>
</svg>
