<?xml version="1.0" encoding="utf-8"?>
<!-- Generator: Adobe Illustrator 15.1.0, SVG Export Plug-In  -->
<!DOCTYPE svg PUBLIC "-//W3C//DTD SVG 1.1//EN" "http://www.w3.org/Graphics/SVG/1.1/DTD/svg11.dtd" [
	<!ENTITY ns_flows "http://ns.adobe.com/Flows/1.0/">
]>
<svg version="1.1"
	 xmlns="http://www.w3.org/2000/svg" xmlns:xlink="http://www.w3.org/1999/xlink" xmlns:a="http://ns.adobe.com/AdobeSVGViewerExtensions/3.0/"
	 x="0px" y="0px" width="16px" height="16px" viewBox="0.008 -3.165 16 16" enable-background="new 0.008 -3.165 16 16"
	 xml:space="preserve">
<defs>
</defs>
<path d="M9.958,0h3.012c0.363,1.007,0.729,2.014,1.092,3.022c0.533,1.472,1.063,2.942,1.596,4.415
	c0.092,0.252,0.172,0.508,0.283,0.752c0.021,0.049,0.035,0.102,0.047,0.154c0.014,0.051,0.02,0.102,0.029,0.152V8.66
	c-0.002,0.004-0.006,0.012-0.006,0.018c-0.012,0.139-0.049,0.27-0.115,0.389c-0.209,0.371-0.523,0.58-0.953,0.582
	C12.874,9.65,10.805,9.65,8.737,9.65c-0.037,0-0.052-0.01-0.064-0.045C8.48,9.068,8.287,8.535,8.093,8
	C7.855,7.343,7.618,6.685,7.382,6.028C7.369,5.994,7.354,5.984,7.317,5.984C7.174,5.988,7.031,5.986,6.888,5.986H6.804
	C6.799,6,6.796,6.013,6.793,6.026C6.749,6.228,6.702,6.425,6.656,6.626C6.465,7.472,6.273,8.316,6.081,9.162
	c-0.039,0.17-0.079,0.34-0.117,0.51H4.972c-0.01-0.002-0.021-0.006-0.031-0.006c-0.34-0.002-0.68-0.004-1.021-0.008L3.008,9.65
	H2.933c0.278-1.221,0.553-2.434,0.83-3.651H3.715c-0.444-0.01-0.89,0.014-1.335-0.011C1.949,5.962,1.568,5.69,1.426,5.284
	C1.403,5.217,1.393,5.146,1.37,5.079C1.01,4.061,0.65,3.043,0.289,2.026c-0.077-0.217-0.162-0.432-0.238-0.65
	C0.026,1.305,0.017,1.228,0,1.154V0.947c0.003-0.005,0.006-0.01,0.007-0.016C0.064,0.483,0.381,0.129,0.82,0.026
	C0.863,0.016,0.905,0.008,0.948,0h7.27c0.104,0.28,0.207,0.559,0.309,0.839c0.716,1.951,1.435,3.901,2.15,5.854
	c0.012,0.027,0.023,0.039,0.055,0.039c0.537-0.002,1.074-0.002,1.611-0.002c0.014,0,0.025-0.002,0.041-0.002
	c-0.004-0.018-0.01-0.027-0.014-0.039c-0.164-0.455-0.33-0.91-0.494-1.365c-0.635-1.758-1.27-3.516-1.904-5.275
	C9.965,0.033,9.963,0.017,9.958,0 M6.567,3.783C6.563,3.769,6.56,3.758,6.557,3.748C6.37,3.229,6.182,2.712,5.996,2.193
	c-0.01-0.027-0.021-0.036-0.052-0.036c-0.849,0.001-1.698,0-2.546,0H3.354c0.004,0.016,0.007,0.026,0.01,0.036
	C3.548,2.71,3.731,3.227,3.914,3.745c0.011,0.03,0.024,0.039,0.056,0.039c0.852-0.001,1.703-0.001,2.555-0.001H6.567z"/>
<path d="M15.042,1.808c-0.504,0-0.904-0.401-0.904-0.905c0-0.496,0.408-0.895,0.912-0.895c0.492,0,0.895,0.406,0.893,0.9
	C15.94,1.409,15.542,1.808,15.042,1.808 M15.043,0.144c-0.4-0.01-0.758,0.332-0.768,0.734c-0.012,0.437,0.322,0.79,0.76,0.793
	c0.426,0.004,0.754-0.332,0.768-0.736C15.817,0.5,15.483,0.154,15.043,0.144"/>
<path d="M14.895,1.302h-0.104v-0.92c0.082,0,0.164-0.003,0.244,0.001c0.055,0.002,0.111,0.008,0.162,0.021
	c0.07,0.018,0.119,0.068,0.131,0.14c0.006,0.052,0.008,0.105,0,0.156c-0.012,0.065-0.055,0.108-0.117,0.132
	c-0.008,0.003-0.018,0.007-0.031,0.014c0.016,0.004,0.025,0.007,0.035,0.008c0.053,0.013,0.088,0.044,0.096,0.096
	c0.01,0.062,0.016,0.125,0.023,0.188c0.004,0.027,0.004,0.054,0.01,0.081c0.008,0.026,0.02,0.052,0.033,0.083
	c-0.037,0-0.072,0.001-0.111-0.001c-0.006,0-0.016-0.018-0.016-0.028c-0.01-0.072-0.021-0.145-0.025-0.218
	c-0.006-0.097-0.047-0.146-0.145-0.156c-0.012-0.001-0.025-0.002-0.039-0.002h-0.146V1.302z M14.895,0.799
	c0.072,0,0.143,0.006,0.213-0.001c0.074-0.008,0.117-0.064,0.121-0.139c0.006-0.09-0.025-0.156-0.096-0.169
	c-0.078-0.015-0.158-0.012-0.238-0.017V0.799z"/>
</svg>
