<?xml version="1.0" encoding="utf-8"?>
<!-- Generator: Adobe Illustrator 15.1.0, SVG Export Plug-In  -->
<!DOCTYPE svg PUBLIC "-//W3C//DTD SVG 1.1//EN" "http://www.w3.org/Graphics/SVG/1.1/DTD/svg11.dtd" [
	<!ENTITY ns_flows "http://ns.adobe.com/Flows/1.0/">
]>
<svg version="1.1"
	 xmlns="http://www.w3.org/2000/svg" xmlns:xlink="http://www.w3.org/1999/xlink" xmlns:a="http://ns.adobe.com/AdobeSVGViewerExtensions/3.0/"
	 x="0px" y="0px" width="16px" height="16px" viewBox="-0.002 -2.261 16 16" enable-background="new -0.002 -2.261 16 16"
	 xml:space="preserve">
<defs>
</defs>
<path d="M2.054,11.477H0V1.531c0.004-0.008,0.012-0.016,0.012-0.024c0.015-0.181,0.07-0.35,0.147-0.512
	c0.103-0.219,0.257-0.397,0.446-0.545c0.216-0.171,0.461-0.286,0.726-0.362c0.1-0.028,0.2-0.058,0.3-0.087h4.431v1.993H2.057v3.133
	h3.489C5.755,3.792,6.365,2.679,7.37,1.793c1.006-0.889,2.195-1.354,3.538-1.377c1.463-0.024,2.742,0.477,3.826,1.458
	c0.528,0.477,0.944,1.044,1.255,1.692c-0.016,0.003-0.021,0.006-0.028,0.006c-0.601,0-1.202,0-1.804,0
	c-0.017,0-0.036-0.013-0.048-0.026c-0.062-0.072-0.115-0.149-0.182-0.217c-0.12-0.123-0.243-0.242-0.37-0.357
	c-0.229-0.209-0.488-0.38-0.766-0.521c-0.293-0.15-0.599-0.264-0.92-0.335c-0.295-0.065-0.594-0.098-0.895-0.099
	c-0.111,0-0.223,0.012-0.332,0.025c-0.156,0.018-0.314,0.031-0.466,0.065C9.852,2.181,9.537,2.29,9.235,2.443
	c-0.318,0.163-0.611,0.36-0.871,0.604C8.21,3.192,8.069,3.352,7.934,3.515C7.77,3.71,7.635,3.927,7.52,4.155
	c-0.153,0.302-0.268,0.619-0.339,0.95C7.127,5.356,7.092,5.61,7.096,5.866C7.1,6.065,7.105,6.266,7.136,6.462
	c0.035,0.23,0.083,0.46,0.15,0.683c0.083,0.273,0.206,0.533,0.353,0.777c0.138,0.23,0.292,0.449,0.475,0.645
	c0.188,0.201,0.39,0.389,0.618,0.547c0.294,0.207,0.606,0.383,0.947,0.498c0.197,0.064,0.402,0.111,0.606,0.162
	c0.224,0.053,0.452,0.068,0.683,0.072c0.081,0.002,0.163-0.004,0.245-0.012c0.182-0.018,0.364-0.033,0.542-0.063
	c0.316-0.055,0.619-0.156,0.909-0.293c0.294-0.139,0.567-0.311,0.819-0.52c0.219-0.18,0.42-0.373,0.589-0.604
	c0.045-0.059,0.096-0.094,0.183-0.094c0.581,0.006,1.162,0.004,1.742,0.004v0.037c-0.007,0.008-0.015,0.018-0.021,0.027
	c-0.14,0.236-0.267,0.48-0.421,0.707c-0.147,0.217-0.316,0.422-0.489,0.621c-0.119,0.139-0.256,0.264-0.395,0.383
	c-0.185,0.156-0.374,0.311-0.572,0.451c-0.287,0.203-0.594,0.369-0.917,0.506c-0.254,0.107-0.51,0.207-0.778,0.268
	c-0.232,0.053-0.47,0.098-0.706,0.133c-0.182,0.027-0.367,0.041-0.551,0.051c-0.133,0.006-0.269-0.004-0.401-0.012
	c-0.164-0.01-0.33-0.014-0.491-0.039c-0.214-0.033-0.427-0.084-0.639-0.133c-0.369-0.082-0.72-0.221-1.054-0.393
	c-0.254-0.131-0.5-0.281-0.734-0.445c-0.217-0.152-0.42-0.326-0.618-0.504C7,9.737,6.816,9.524,6.644,9.299
	C6.443,9.042,6.267,8.764,6.112,8.473C5.933,8.135,5.793,7.78,5.691,7.409C5.64,7.223,5.606,7.034,5.565,6.844
	C5.55,6.766,5.54,6.688,5.526,6.613H2.053V6.68v4.063C2.053,10.987,2.054,11.233,2.054,11.477"/>
<path d="M14.09,4.767h-0.068c-0.531,0-1.063-0.003-1.593,0.002c-0.086,0-0.14-0.03-0.189-0.089c-0.11-0.131-0.248-0.228-0.394-0.315
	c-0.174-0.104-0.361-0.176-0.561-0.213c-0.171-0.031-0.34-0.041-0.514-0.024c-0.183,0.018-0.358,0.062-0.526,0.13
	c-0.164,0.067-0.313,0.163-0.451,0.278C9.594,4.703,9.442,4.906,9.33,5.14c-0.086,0.18-0.134,0.369-0.158,0.567
	C9.135,6.018,9.185,6.314,9.301,6.601c0.064,0.158,0.157,0.304,0.268,0.435c0.169,0.205,0.375,0.363,0.614,0.477
	c0.186,0.088,0.38,0.137,0.585,0.158c0.235,0.027,0.462,0.002,0.686-0.064c0.195-0.059,0.376-0.145,0.54-0.27
	c0.133-0.1,0.255-0.207,0.354-0.34c0.014-0.018,0.051-0.023,0.078-0.023c0.513-0.002,1.023-0.002,1.538-0.002h0.147
	c-0.435,1.35-1.813,2.389-3.405,2.275C9.872,9.186,9.155,8.852,8.567,8.26c-0.647-0.65-0.98-1.449-0.98-2.365
	c0-0.818,0.274-1.548,0.811-2.171c0.55-0.638,1.245-1.035,2.081-1.144C12.415,2.328,13.724,3.656,14.09,4.767"/>
</svg>
