<?xml version="1.0" encoding="utf-8"?>
<!-- Generator: Adobe Illustrator 15.1.0, SVG Export Plug-In  -->
<!DOCTYPE svg PUBLIC "-//W3C//DTD SVG 1.1//EN" "http://www.w3.org/Graphics/SVG/1.1/DTD/svg11.dtd" [
	<!ENTITY ns_flows "http://ns.adobe.com/Flows/1.0/">
]>
<svg version="1.1"
	 xmlns="http://www.w3.org/2000/svg" xmlns:xlink="http://www.w3.org/1999/xlink" xmlns:a="http://ns.adobe.com/AdobeSVGViewerExtensions/3.0/"
	 x="0px" y="0px" width="16px" height="16px" viewBox="0.002 -2.73 16 16" enable-background="new 0.002 -2.73 16 16"
	 xml:space="preserve">
<defs>
</defs>
<path d="M14.826,10.54c-0.665-0.196-1.345-0.355-1.989-0.604c-0.414-0.158-0.818-0.399-1.155-0.688
	c-0.594-0.506-1.1-1.088-1.454-1.812C9.71,6.379,9.531,5.283,9.832,4.165c0.441-1.633,1.443-2.834,2.992-3.574
	c1.014-0.485,2.078-0.617,3.181-0.586v1.621c-2.353-0.324-4.23,1.34-4.433,2.875h3.291v1.553h-3.416
	c0.177,0.346,0.301,0.629,0.456,0.893c0.927,1.57,2.341,2.135,4.102,1.973v1.621H14.826z"/>
<path d="M5.027,10.54c-0.526-0.148-1.065-0.265-1.575-0.459C3.023,9.917,2.594,9.708,2.228,9.436
	C1.62,8.984,1.104,8.442,0.708,7.771c-0.73-1.235-0.898-2.542-0.49-3.882C0.714,2.263,1.813,1.134,3.39,0.473
	c0.925-0.387,1.881-0.519,2.905-0.446v1.57c-1.398-0.08-2.639,0.248-3.625,1.31C2.035,3.591,1.753,4.39,1.746,5.305
	C1.736,6.5,2.288,7.437,3.201,8.132C4.097,8.816,5.155,9.059,6.28,8.931v1.608H5.027z"/>
</svg>
