<?xml version="1.0" encoding="utf-8"?>
<!-- Generator: Adobe Illustrator 15.1.0, SVG Export Plug-In  -->
<!DOCTYPE svg PUBLIC "-//W3C//DTD SVG 1.1//EN" "http://www.w3.org/Graphics/SVG/1.1/DTD/svg11.dtd" [
	<!ENTITY ns_flows "http://ns.adobe.com/Flows/1.0/">
]>
<svg version="1.1"
	 xmlns="http://www.w3.org/2000/svg" xmlns:xlink="http://www.w3.org/1999/xlink" xmlns:a="http://ns.adobe.com/AdobeSVGViewerExtensions/3.0/"
	 x="0px" y="0px" width="16px" height="18px" viewBox="0 0 16 18" enable-background="new 0 0 16 18" xml:space="preserve">
<defs>
</defs>
<path d="M15.03,0c-0.089,1.899-0.544,3.792,0.321,5.604c-2.008,0.876-3.405,2.429-4.798,3.975c-1.438,1.598-2.743,3.302-3.841,5.158
	c-0.03,0.051-0.072,0.095-0.125,0.162C4.712,12.709,2.719,10.688,0,9.45c1.426-0.865,2.813-1.705,4.236-2.568
	c0.698,1.349,1.381,2.667,2.09,4.038C8.435,6.599,10.77,2.538,15.03,0"/>
<path d="M1.111,14.588c0.822,0,1.621-0.036,2.415,0.013c0.554,0.034,0.796,0.321,0.868,0.819c0.073,0.504-0.145,0.908-0.61,1.131
	c-0.056,0.027-0.11,0.057-0.205,0.106c0.628,0.314,0.754,0.958,1.131,1.54c-0.437,0-0.804,0.013-1.168-0.011
	c-0.081-0.004-0.175-0.121-0.227-0.207c-0.181-0.3-0.325-0.626-0.529-0.908c-0.11-0.153-0.314-0.24-0.476-0.357
	c-0.035,0.031-0.071,0.062-0.106,0.093v1.366H1.111V14.588z M2.228,16.136c0.287-0.024,0.554-0.013,0.796-0.083
	c0.117-0.034,0.273-0.24,0.257-0.344c-0.021-0.133-0.179-0.313-0.31-0.346c-0.231-0.057-0.485-0.016-0.743-0.016V16.136z"/>
<path d="M12.021,18.184h-1.069v-1.469h-1.29v1.461H8.558c-0.008-0.075-0.019-0.135-0.019-0.195
	c-0.001-1.129-0.001-2.257-0.001-3.414h1.094v1.217h1.29v-1.214h1.099V18.184z"/>
<path d="M15.892,15.54c-0.306,0.033-0.577,0.079-0.85,0.084c-0.073,0.002-0.176-0.108-0.217-0.191
	c-0.131-0.268-0.351-0.368-0.618-0.311c-0.122,0.027-0.219,0.165-0.328,0.253c0.086,0.094,0.156,0.236,0.263,0.272
	c0.39,0.133,0.801,0.204,1.187,0.348c0.433,0.16,0.7,0.48,0.71,0.967c0.011,0.498-0.208,0.877-0.65,1.102
	c-0.514,0.259-1.058,0.246-1.612,0.148c-0.547-0.096-0.866-0.419-1.014-0.936c-0.02-0.069-0.01-0.146-0.015-0.237
	c0.281-0.03,0.552-0.074,0.823-0.08c0.077-0.002,0.188,0.089,0.231,0.166c0.186,0.329,0.481,0.409,0.805,0.328
	c0.138-0.036,0.304-0.204,0.334-0.34c0.021-0.098-0.131-0.293-0.252-0.354c-0.208-0.105-0.454-0.132-0.679-0.208
	c-0.236-0.08-0.483-0.151-0.695-0.276c-0.614-0.363-0.638-1.188-0.018-1.545c0.684-0.395,1.418-0.38,2.121-0.03
	C15.729,14.854,15.869,15.154,15.892,15.54"/>
<path d="M4.967,16.843c0.004-0.845,0.605-1.402,1.513-1.401c0.94,0,1.52,0.548,1.511,1.429c-0.009,0.87-0.608,1.416-1.544,1.405
	C5.547,18.265,4.962,17.698,4.967,16.843 M7.023,16.915c-0.013-0.146-0.009-0.237-0.031-0.32c-0.068-0.271-0.184-0.506-0.515-0.502
	c-0.325,0.004-0.479,0.229-0.507,0.506c-0.023,0.241-0.007,0.511,0.081,0.729c0.055,0.136,0.281,0.275,0.43,0.275
	s0.333-0.145,0.434-0.278C7.005,17.207,6.999,17.019,7.023,16.915"/>
</svg>
