<svg width="18" height="18" viewBox="0 0 18 18" fill="none" xmlns="http://www.w3.org/2000/svg">
<path d="M0.0215501 8.86883C-0.0262426 7.34799 0.00547182 5.8257 0.116564 4.30818C0.251687 3.12381 0.820291 2.03134 1.71287 1.24121C2.60544 0.451087 3.75883 0.019208 4.95084 0.0287683C7.64162 0.00343139 10.3337 0.00343139 13.027 0.0287683C13.681 0.0287188 14.3284 0.158498 14.9319 0.410585C15.5353 0.662673 16.0827 1.03205 16.5423 1.4973C17.0019 1.96254 17.3645 2.5144 17.6092 3.12087C17.8539 3.72734 17.9757 4.37636 17.9677 5.03028C18.0108 7.70586 18.0108 10.3814 17.9677 13.057C17.9527 14.3669 17.4213 15.6178 16.489 16.538C15.5567 17.4582 14.2989 17.9732 12.989 17.9711C10.3312 17.9965 7.67077 17.9965 5.00786 17.9711C4.3508 17.9716 3.70013 17.8423 3.09323 17.5905C2.48633 17.3387 1.93518 16.9695 1.47146 16.504C1.00773 16.0385 0.640574 15.4859 0.391096 14.8781C0.141619 14.2702 0.0147408 13.6191 0.0177459 12.962C0.0177459 11.6166 0.0177459 10.2712 0.0177459 8.92203C0.025347 8.87643 0.0215501 8.89163 0.0215501 8.86883ZM13.9923 8.98284C13.9915 7.99305 13.6966 7.02582 13.145 6.20396C12.5934 5.38211 11.8101 4.7427 10.8944 4.36692C9.9787 3.99114 8.972 3.89594 8.00211 4.09341C7.03221 4.29088 6.14286 4.77212 5.447 5.47601C4.75113 6.17991 4.28013 7.07471 4.09379 8.04681C3.90746 9.0189 4.01422 10.0244 4.40048 10.9358C4.78674 11.8471 5.43509 12.6231 6.26322 13.1652C7.09135 13.7073 8.06188 13.9911 9.05162 13.9806C10.3675 13.9665 11.6247 13.4337 12.5499 12.4978C13.475 11.562 13.9934 10.2988 13.9923 8.98284ZM15.9686 3.00459C15.9747 2.87224 15.9529 2.74009 15.9047 2.61669C15.8564 2.49329 15.7828 2.38139 15.6886 2.28825C15.5944 2.1951 15.4816 2.12278 15.3577 2.07596C15.2337 2.02914 15.1013 2.00886 14.9691 2.01645C14.7108 2.01528 14.4621 2.11451 14.2756 2.29321C14.0891 2.47191 13.9794 2.71608 13.9695 2.97419C13.9747 3.241 14.0799 3.49613 14.2643 3.68901C14.4488 3.88189 14.699 3.99843 14.9653 4.01553C15.0977 4.01554 15.2288 3.98934 15.351 3.93844C15.4732 3.88754 15.5842 3.81296 15.6774 3.71898C15.7707 3.62501 15.8445 3.5135 15.8944 3.39089C15.9444 3.26828 15.9696 3.13699 15.9686 3.00459Z" fill="black"/>
<path d="M11.9705 9.02481C11.963 9.61186 11.782 10.1836 11.4503 10.668C11.1187 11.1524 10.6511 11.5279 10.1065 11.7472C9.5619 11.9665 8.96461 12.0198 8.38978 11.9004C7.81495 11.7811 7.28829 11.4943 6.87606 11.0763C6.46383 10.6583 6.18445 10.1276 6.0731 9.55119C5.96176 8.97475 6.02342 8.37825 6.2503 7.83677C6.47719 7.29529 6.85917 6.83302 7.34818 6.50814C7.83719 6.18325 8.41139 6.01028 8.99848 6.01098C9.39334 6.0073 9.78491 6.08307 10.1499 6.23375C10.5149 6.38444 10.8458 6.60698 11.1231 6.88814C11.4003 7.1693 11.6183 7.50334 11.7638 7.8704C11.9094 8.23746 11.9797 8.63004 11.9705 9.02481Z" fill="black"/>
</svg>
