<svg width="18" height="18" viewBox="0 0 18 18" fill="none" xmlns="http://www.w3.org/2000/svg">
<path d="M17.5043 7.71134C17.5301 8.63222 17.3656 9.54831 17.0215 10.3995C16.6774 11.2507 16.1615 12.0178 15.5076 12.6505C13.7393 14.4352 11.688 15.8478 9.61099 17.2241C9.30778 17.4219 8.97717 17.5718 8.63035 17.6687C8.23167 17.7905 8.09985 17.616 8.2156 17.2143C8.33134 16.8125 8.47281 16.3845 8.55641 15.9597C8.64 15.535 8.46638 15.3012 8.01626 15.2156C7.3271 15.1064 6.64443 14.958 5.97141 14.771C3.90726 14.0927 2.22571 12.8777 1.22258 10.8625C0.116554 8.63331 0.277313 6.43045 1.64376 4.37906C3.07774 2.23547 5.18047 1.16203 7.63365 0.806408C9.69334 0.480793 11.8004 0.861658 13.6268 1.88973C15.4144 2.87756 16.723 4.32308 17.276 6.37447C17.3781 6.81501 17.4544 7.26143 17.5043 7.71134ZM10.598 9.41699L10.5369 9.44004C10.4759 9.35443 10.4116 9.26882 10.3537 9.17991C9.89714 8.46867 9.43737 7.76073 8.98403 7.04949C8.85221 6.84205 8.69467 6.67412 8.42459 6.72021C8.15452 6.76631 8.06449 7.01986 8.06127 7.27998C8.06127 8.3205 8.06127 9.36102 8.06127 10.4015C8.06127 10.632 8.14807 10.8362 8.41172 10.8395C8.67536 10.8428 8.79111 10.6353 8.79433 10.3917C8.79433 9.75615 8.79433 9.11735 8.79433 8.47855C8.79433 8.37648 8.79433 8.27111 8.81683 8.08342C9.27017 8.79466 9.67207 9.43016 10.0772 10.0591C10.1819 10.2669 10.3175 10.4569 10.4791 10.6221C10.6449 10.7497 10.8516 10.8085 11.0578 10.7868C11.1639 10.767 11.2861 10.5069 11.3022 10.3455C11.3375 9.98005 11.3022 9.60797 11.3022 9.23918C11.3022 8.52465 11.3022 7.80683 11.3022 7.0923C11.3102 7.04462 11.3079 6.99571 11.2954 6.94905C11.2829 6.90239 11.2604 6.85913 11.2298 6.82235C11.1991 6.78557 11.1608 6.75616 11.1178 6.73623C11.0747 6.7163 11.0279 6.70634 10.9806 6.70705C10.7492 6.70705 10.6591 6.84205 10.6109 7.03632C10.5949 7.15853 10.5884 7.28185 10.5916 7.40511C10.5948 8.09659 10.598 8.75515 10.598 9.41699ZM13.0159 7.40511H14.7296C14.9418 7.40511 15.1475 7.36231 15.1443 7.0923C15.1411 6.82229 14.9353 6.78607 14.7199 6.78607C14.0769 6.78607 13.4081 6.78607 12.7522 6.78607C12.3214 6.78607 12.2121 6.90132 12.2088 7.35243C12.2088 8.31391 12.2088 9.2776 12.2088 10.2435C12.2088 10.6748 12.3278 10.7901 12.7683 10.7967C13.2731 10.7967 13.7746 10.7967 14.2794 10.7967C14.4943 10.8102 14.71 10.7992 14.9225 10.7637C14.9871 10.7396 15.0449 10.6992 15.0904 10.6463C15.1359 10.5933 15.1677 10.5296 15.1829 10.4608C15.1829 10.3554 15.0253 10.2237 14.9064 10.1612C14.7898 10.1309 14.6686 10.1242 14.5495 10.1414H13.0223V9.01198H13.2088C13.6911 9.01198 14.1733 9.01198 14.6524 8.99552C14.7249 8.97756 14.7921 8.9418 14.8481 8.89132C14.9041 8.84083 14.9473 8.77715 14.9739 8.70575C15.0254 8.50819 14.855 8.41928 14.6717 8.40611C14.5399 8.40611 14.408 8.40611 14.2762 8.40611H13.0159V7.40511ZM3.80758 10.1216C3.80758 9.79237 3.80758 9.49272 3.80758 9.19308C3.80758 8.5016 3.80758 7.80683 3.78829 7.11535C3.78723 7.06432 3.77638 7.01401 3.75634 6.96728C3.7363 6.92056 3.70746 6.87833 3.67148 6.84302C3.63551 6.8077 3.59309 6.77999 3.54666 6.76146C3.50022 6.74293 3.45069 6.73395 3.40087 6.73503C3.35105 6.73611 3.30191 6.74724 3.25628 6.76776C3.21066 6.78829 3.16943 6.81781 3.13495 6.85466C3.10046 6.8915 3.0734 6.93494 3.05531 6.9825C3.03722 7.03005 3.02845 7.08079 3.02951 7.13181C3.02951 8.20525 3.02951 9.27869 3.02951 10.3521C3.02454 10.4055 3.0306 10.4594 3.04731 10.5102C3.06401 10.5611 3.091 10.6077 3.12649 10.6472C3.16198 10.6866 3.20517 10.718 3.25328 10.7392C3.30138 10.7604 3.35331 10.771 3.40568 10.7703C3.49207 10.7818 3.57901 10.7884 3.66611 10.7901C4.25449 10.7901 4.84286 10.7901 5.43446 10.7901C5.63058 10.7901 5.80742 10.7045 5.80099 10.4608C5.79456 10.2171 5.62416 10.1315 5.41838 10.1315H3.81079L3.80758 10.1216ZM6.37972 8.74856V10.3258C6.37972 10.5991 6.45367 10.8395 6.76555 10.8428C7.07742 10.8461 7.16744 10.5991 7.16744 10.3324C7.16744 9.30504 7.16744 8.2744 7.16744 7.24376C7.16744 6.88156 7.0067 6.69058 6.75591 6.71034C6.43439 6.73668 6.38294 6.97376 6.37972 7.23718C6.36686 7.75415 6.37009 8.25794 6.37009 8.76173L6.37972 8.74856Z" fill="black"/>
</svg>
