<?xml version="1.0" encoding="utf-8"?>
<!-- Generator: Adobe Illustrator 15.1.0, SVG Export Plug-In  -->
<!DOCTYPE svg PUBLIC "-//W3C//DTD SVG 1.1//EN" "http://www.w3.org/Graphics/SVG/1.1/DTD/svg11.dtd" [
	<!ENTITY ns_flows "http://ns.adobe.com/Flows/1.0/">
]>
<svg version="1.1"
	 xmlns="http://www.w3.org/2000/svg" xmlns:xlink="http://www.w3.org/1999/xlink" xmlns:a="http://ns.adobe.com/AdobeSVGViewerExtensions/3.0/"
	 x="0px" y="0px" width="20px" height="19px" viewBox="0 0 20 19" enable-background="new 0 0 20 19" xml:space="preserve">
<defs>
</defs>
<path d="M0,9.625c0.036-0.013,0.074-0.021,0.106-0.039c1.104-0.625,2.205-1.25,3.308-1.877C3.436,7.696,3.457,7.68,3.504,7.647
	C2.338,6.981,1.188,6.321,0.012,5.65C0.091,5.6,0.149,5.561,0.208,5.527c3.205-1.821,6.41-3.642,9.615-5.462
	c0.104-0.06,0.185-0.098,0.316-0.023c3.226,1.838,6.454,3.67,9.68,5.503c0.047,0.025,0.089,0.054,0.17,0.102
	c-1.174,0.671-2.326,1.33-3.494,1.999C16.541,7.676,16.569,7.7,16.6,7.717c1.097,0.624,2.193,1.246,3.289,1.869
	c0.033,0.018,0.071,0.027,0.107,0.04v0.04c-0.543,0.304-1.088,0.606-1.629,0.914c-0.614,0.351-1.23,0.704-1.881,1.076
	c1.171,0.667,2.32,1.319,3.5,1.989c-0.071,0.046-0.121,0.08-0.172,0.11c-3.229,1.845-6.457,3.688-9.688,5.528
	c-0.063,0.036-0.18,0.042-0.241,0.008c-3.259-1.854-6.516-3.716-9.771-5.576c-0.026-0.017-0.051-0.033-0.101-0.07
	c1.169-0.664,2.316-1.316,3.489-1.983c-0.058-0.038-0.093-0.064-0.129-0.087c-1.089-0.622-2.179-1.245-3.268-1.867
	C0.072,9.688,0.035,9.678,0,9.665V9.625z M18.515,5.651c-0.065-0.041-0.105-0.07-0.15-0.096c-2.74-1.557-5.482-3.114-8.222-4.675
	C10.039,0.822,9.963,0.82,9.859,0.879C7.12,2.439,4.378,3.996,1.637,5.555C1.589,5.581,1.546,5.613,1.487,5.652
	c0.057,0.034,0.091,0.054,0.124,0.073c2.749,1.571,5.498,3.141,8.244,4.716c0.126,0.074,0.208,0.042,0.316-0.018
	c2.358-1.351,4.719-2.697,7.079-4.045C17.664,6.14,18.079,5.901,18.515,5.651 M1.483,9.642c0.041,0.03,0.06,0.047,0.083,0.06
	c2.771,1.583,5.543,3.167,8.313,4.753c0.104,0.061,0.174,0.034,0.264-0.016c2.732-1.563,5.464-3.123,8.196-4.685
	c0.057-0.031,0.11-0.065,0.18-0.106c-0.073-0.042-0.128-0.075-0.185-0.107c-0.804-0.456-1.606-0.91-2.405-1.372
	c-0.129-0.074-0.22-0.08-0.352-0.003c-1.804,1.038-3.611,2.066-5.416,3.102c-0.114,0.065-0.202,0.079-0.317,0.005
	c-0.201-0.13-0.416-0.242-0.624-0.362C7.617,9.995,6.013,9.078,4.408,8.167C4.337,8.126,4.213,8.102,4.15,8.136
	C3.264,8.628,2.383,9.131,1.483,9.642 M1.487,13.652c0.045,0.03,0.066,0.045,0.088,0.06c2.761,1.578,5.521,3.152,8.279,4.734
	c0.113,0.065,0.193,0.053,0.3-0.008c2.724-1.562,5.451-3.118,8.177-4.676c0.055-0.03,0.105-0.067,0.179-0.11
	c-0.071-0.045-0.124-0.081-0.179-0.111c-0.798-0.453-1.598-0.901-2.389-1.361c-0.142-0.083-0.243-0.083-0.387,0
	c-1.791,1.029-3.589,2.052-5.38,3.082c-0.129,0.072-0.219,0.078-0.351,0.002c-1.797-1.034-3.6-2.061-5.398-3.093
	c-0.127-0.072-0.219-0.08-0.351-0.004c-0.804,0.467-1.615,0.921-2.422,1.382C1.604,13.577,1.557,13.609,1.487,13.652"/>
</svg>
