<?xml version="1.0" encoding="utf-8"?>
<!-- Generator: Adobe Illustrator 15.1.0, SVG Export Plug-In  -->
<!DOCTYPE svg PUBLIC "-//W3C//DTD SVG 1.1//EN" "http://www.w3.org/Graphics/SVG/1.1/DTD/svg11.dtd" [
	<!ENTITY ns_flows "http://ns.adobe.com/Flows/1.0/">
]>
<svg version="1.1"
	 xmlns="http://www.w3.org/2000/svg" xmlns:xlink="http://www.w3.org/1999/xlink" xmlns:a="http://ns.adobe.com/AdobeSVGViewerExtensions/3.0/"
	 x="0px" y="0px" width="16px" height="16px" viewBox="-0.043 -0.026 16 16" enable-background="new -0.043 -0.026 16 16"
	 xml:space="preserve">
<defs>
</defs>
<path d="M10.635,15.947c-3.05,0-6.095,0-9.143,0c-0.009-0.004-0.017-0.017-0.025-0.017C0.474,15.693,0,15.092,0,14.069
	c0-3.065,0-6.136,0-9.201c0-1.042,0-2.085,0-3.127c0-0.594,0.237-1.089,0.731-1.417C0.956,0.175,1.238,0.108,1.492,0
	c2.392,0,4.789,0,7.182,0c0.087,0.063,0.183,0.116,0.258,0.19c1.001,1.002,2.002,2.003,3.003,3.004
	c0.132,0.133,0.195,0.283,0.191,0.473c-0.006,0.686,0,1.371-0.006,2.057c0,0.104,0.025,0.162,0.13,0.211
	c1.795,0.868,2.401,3.124,1.287,4.781c-0.028,0.043-0.054,0.083-0.096,0.146c0.052,0.041,0.1,0.069,0.138,0.111
	c0.698,0.697,1.396,1.391,2.086,2.094c0.094,0.096,0.165,0.22,0.249,0.328c0,0.075,0,0.144,0,0.215
	c-0.22,0.429-0.54,0.478-0.886,0.135c-0.706-0.708-1.412-1.417-2.118-2.129c-0.037-0.04-0.063-0.094-0.083-0.128
	c-0.22,0.128-0.395,0.24-0.582,0.327c-0.1,0.051-0.129,0.105-0.129,0.214c0.004,0.746,0.01,1.496,0,2.238
	c-0.007,0.735-0.498,1.38-1.192,1.596C10.83,15.896,10.729,15.917,10.635,15.947z M8.083,0.931c-0.066,0-0.108,0-0.149,0
	c-2.056,0-4.112,0-6.173,0c-0.507,0-0.831,0.328-0.831,0.843c0,4.133,0,8.267,0,12.399c0,0.519,0.324,0.844,0.847,0.844
	c0.959,0,1.919,0,2.875,0c1.902,0,3.805,0,5.704,0c0.51,0,0.83-0.325,0.834-0.84c0-0.63,0-1.267,0-1.898
	c0-0.045-0.004-0.092-0.008-0.137c-2.043,0.173-3.547-1.396-3.61-3.107c-0.03-0.855,0.212-1.62,0.773-2.272
	c0.743-0.864,1.702-1.225,2.832-1.146c0-0.527,0-1.042,0-1.566c-0.065,0-0.124,0-0.179,0c-0.788,0-1.574,0-2.364,0
	c-0.377,0-0.556-0.178-0.556-0.548c0-0.793,0-1.586,0-2.384C8.083,1.055,8.083,1.001,8.083,0.931z M8.502,8.869
	c-0.003,1.283,1.036,2.338,2.31,2.342c1.304,0.004,2.347-1.03,2.351-2.33c0.004-1.292-1.029-2.335-2.322-2.343
	C9.554,6.53,8.507,7.577,8.502,8.869z M10.473,3.103c-0.481-0.485-0.969-0.972-1.45-1.454c0,0.474,0,0.959,0,1.454
	C9.517,3.103,9.998,3.103,10.473,3.103z"/>
<path d="M4.976,5.915c-0.868,0-1.74,0-2.608,0c-0.37,0-0.607-0.341-0.458-0.656C2.003,5.063,2.16,4.98,2.372,4.98
	c0.897,0,1.791,0,2.688,0c0.843,0,1.687,0,2.53,0c0.361,0,0.594,0.337,0.453,0.648C7.95,5.828,7.785,5.915,7.568,5.915
	C6.705,5.915,5.841,5.915,4.976,5.915z"/>
<path d="M4.349,6.85c0.652,0,1.305,0,1.957,0c0.316,0,0.528,0.183,0.532,0.461c0.004,0.282-0.212,0.474-0.536,0.474
	c-1.309,0-2.617,0-3.93,0c-0.374,0-0.614-0.329-0.469-0.648C1.99,6.941,2.147,6.85,2.359,6.85C3.024,6.85,3.685,6.85,4.349,6.85z"/>
<path d="M4.366,8.719c0.648,0,1.292,0,1.94,0c0.316,0,0.528,0.187,0.532,0.465c0,0.278-0.212,0.469-0.523,0.469
	c-1.308,0-2.617,0-3.93,0c-0.311,0-0.522-0.194-0.522-0.474c0.004-0.27,0.211-0.46,0.515-0.46C3.041,8.719,3.705,8.719,4.366,8.719z
	"/>
<path d="M4.333,11.523c-0.648,0-1.292,0-1.94,0c-0.315,0-0.527-0.188-0.527-0.465c0-0.278,0.212-0.47,0.523-0.47
	c1.309,0,2.617,0,3.929,0c0.312,0,0.523,0.195,0.52,0.474c-0.003,0.272-0.212,0.461-0.515,0.461
	C5.658,11.523,4.998,11.523,4.333,11.523z"/>
</svg>
