<?xml version="1.0" encoding="utf-8"?>
<!-- Generator: Adobe Illustrator 15.1.0, SVG Export Plug-In  -->
<!DOCTYPE svg PUBLIC "-//W3C//DTD SVG 1.1//EN" "http://www.w3.org/Graphics/SVG/1.1/DTD/svg11.dtd" [
	<!ENTITY ns_flows "http://ns.adobe.com/Flows/1.0/">
]>
<svg version="1.1"
	 xmlns="http://www.w3.org/2000/svg" xmlns:xlink="http://www.w3.org/1999/xlink" xmlns:a="http://ns.adobe.com/AdobeSVGViewerExtensions/3.0/"
	 x="0px" y="0px" width="16px" height="16px" viewBox="-1.832 0 16 16" enable-background="new -1.832 0 16 16"
	 xml:space="preserve">
<defs>
</defs>
<path fill-rule="evenodd" clip-rule="evenodd" d="M3.779,11.625c0.379,0,0.555,0.308,0.555,0.691s-0.176,0.695-0.555,0.695
	c-0.394,0-0.565-0.33-0.565-0.695C3.214,11.95,3.386,11.625,3.779,11.625 M11.589,0.747H3.204v2.457H0.747v12.05h10.842V0.747z
	 M2.83,0H2.457v2.457H0V16h12.336V0H2.83z M2.604,11.155v3.225h0.632v-1.115h0.118c0.121,0.163,0.307,0.271,0.627,0.271
	c0.61,0,0.985-0.511,0.985-1.219c0-0.7-0.37-1.22-0.985-1.22c-0.325,0-0.523,0.112-0.649,0.271H3.214v-0.213H2.604z M6.356,11.097
	c0.321,0,0.507,0.108,0.629,0.271h0.116v-1.175h0.633v3.283h-0.61v-0.212H7.008c-0.127,0.157-0.325,0.271-0.651,0.271
	c-0.613,0-0.984-0.52-0.984-1.219C5.372,11.616,5.743,11.097,6.356,11.097 M6.561,13.012c-0.379,0-0.556-0.312-0.556-0.695
	s0.177-0.691,0.556-0.691c0.393,0,0.563,0.325,0.563,0.691C7.124,12.682,6.953,13.012,6.561,13.012 M9.73,11.685H9.148v1.792H8.516
	v-1.792H8.178v-0.529h0.338v-0.166c0-0.578,0.395-0.796,0.917-0.796H9.73v0.529H9.441c-0.222,0-0.293,0.14-0.293,0.297v0.136H9.73
	V11.685z"/>
</svg>
