<svg width="16" height="16" viewBox="0 0 16 16" fill="none" xmlns="http://www.w3.org/2000/svg">
<path d="M15.3287 14.4058L12.1295 11.2066C13.0947 10.0389 13.6162 8.58331 13.6162 7.04984C13.6162 5.29841 12.9312 3.65596 11.6936 2.41829C9.13259 -0.142688 4.97587 -0.142688 2.42268 2.4105C1.185 3.64818 0.5 5.29841 0.5 7.04984C0.5 8.80127 1.185 10.4437 2.42268 11.6814C3.66035 12.9191 5.31059 13.6041 7.05423 13.6041C8.5877 13.6041 10.0433 13.0825 11.2109 12.1173L14.4102 15.3166C14.5348 15.4411 14.6982 15.5034 14.8617 15.5034C15.0252 15.5034 15.1886 15.4411 15.3132 15.3166C15.5623 15.0675 15.5623 14.6549 15.3132 14.4058H15.3287ZM3.32564 10.7706C2.32927 9.77428 1.78438 8.45098 1.78438 7.04206C1.78438 5.63313 2.32927 4.30983 3.32564 3.31346C4.35314 2.28596 5.69979 1.77221 7.05423 1.77221C8.40867 1.77221 9.75532 2.28596 10.7828 3.31346C11.7792 4.30983 12.3241 5.63313 12.3241 7.04206C12.3241 8.45098 11.7792 9.77428 10.7828 10.7706C9.78646 11.767 8.46316 12.3119 7.05423 12.3119C5.6453 12.3119 4.322 11.767 3.32564 10.7706Z" fill="black"/>
</svg>
