<svg width="20" height="18" viewBox="0 0 20 18" fill="none" xmlns="http://www.w3.org/2000/svg">
<path d="M7.49454 0.454834C3.35812 0.454834 0 3.25327 0 6.69883C0.0288022 7.68921 0.305694 8.65651 0.805307 9.51212C1.30492 10.3677 2.01128 11.0843 2.85965 11.5961L1.87145 13.5725L4.56493 12.4181C5.15333 12.6341 5.76311 12.7865 6.3839 12.8729C6.29327 12.4858 6.24636 12.0898 6.244 11.6923C6.244 8.25545 9.61084 5.44828 13.7385 5.44828C14.1129 5.45212 14.4867 5.4784 14.8579 5.52698C14.1933 2.64111 11.15 0.454834 7.49454 0.454834ZM4.99343 5.13346C4.80875 5.13173 4.62871 5.07539 4.47598 4.97152C4.32326 4.86766 4.20469 4.72093 4.13521 4.5498C4.06572 4.37868 4.04844 4.19081 4.08553 4.00988C4.12261 3.82895 4.21241 3.66304 4.34361 3.53305C4.47482 3.40306 4.64155 3.3148 4.82282 3.2794C5.00409 3.244 5.19179 3.26303 5.36226 3.3341C5.53273 3.40517 5.67837 3.52511 5.78081 3.6788C5.88324 3.83248 5.93791 4.01304 5.93792 4.19773C5.93792 4.32136 5.91343 4.44375 5.86586 4.55785C5.81829 4.67195 5.74858 4.7755 5.66076 4.8625C5.57295 4.94951 5.46877 5.01825 5.35423 5.06476C5.23969 5.11126 5.11705 5.13461 4.99343 5.13346ZM9.99562 5.13346C9.81055 5.13346 9.62965 5.07858 9.47577 4.97576C9.32189 4.87294 9.20195 4.7268 9.13112 4.55582C9.0603 4.38484 9.04178 4.1967 9.07788 4.01518C9.11399 3.83367 9.20311 3.66694 9.33398 3.53608C9.46484 3.40521 9.63157 3.31609 9.81308 3.27999C9.99459 3.24388 10.1827 3.26241 10.3537 3.33323C10.5247 3.40406 10.6708 3.524 10.7737 3.67788C10.8765 3.83175 10.9314 4.01267 10.9314 4.19773C10.9314 4.4444 10.834 4.68109 10.6604 4.85632C10.4868 5.03155 10.251 5.13115 10.0044 5.13346" fill="black"/>
<path d="M19.9913 11.6924C19.9913 8.93768 17.1928 6.69894 13.7385 6.69894C10.2842 6.69894 7.49454 8.93768 7.49454 11.6924C7.49454 14.4471 10.293 16.6946 13.7385 16.6946C14.2889 16.6892 14.8372 16.6247 15.3739 16.5022L18.7495 17.9451L17.5864 15.6189C18.2906 15.2251 18.8822 14.6575 19.3048 13.9701C19.7273 13.2827 19.9666 12.4986 20 11.6924H19.9913ZM11.8758 11.3863C11.6883 11.388 11.5045 11.3339 11.3478 11.2308C11.1912 11.1277 11.0688 10.9803 10.9962 10.8073C10.9237 10.6344 10.9042 10.4438 10.9404 10.2598C10.9765 10.0757 11.0667 9.90664 11.1993 9.77403C11.3319 9.64142 11.501 9.5513 11.685 9.51513C11.869 9.47897 12.0596 9.49841 12.2326 9.57097C12.4055 9.64354 12.5529 9.76595 12.656 9.9226C12.7591 10.0792 12.8133 10.263 12.8115 10.4506C12.8115 10.6987 12.713 10.9368 12.5375 11.1122C12.362 11.2877 12.124 11.3863 11.8758 11.3863ZM15.6275 11.3863C15.4399 11.388 15.2561 11.3339 15.0995 11.2308C14.9428 11.1277 14.8204 10.9803 14.7479 10.8073C14.6753 10.6344 14.6559 10.4438 14.692 10.2598C14.7282 10.0757 14.8183 9.90664 14.9509 9.77403C15.0835 9.64142 15.2526 9.5513 15.4366 9.51513C15.6207 9.47897 15.8113 9.49841 15.9842 9.57097C16.1572 9.64354 16.3046 9.76595 16.4077 9.9226C16.5108 10.0792 16.5649 10.263 16.5632 10.4506C16.5632 10.6987 16.4646 10.9368 16.2891 11.1122C16.1136 11.2877 15.8756 11.3863 15.6275 11.3863Z" fill="black"/>
</svg>
