<svg width="22" height="16" viewBox="0 0 22 16" fill="none" xmlns="http://www.w3.org/2000/svg">
<path d="M17.43 0.588623H4.56986C3.54408 0.588623 2.56031 1.00811 1.83497 1.75479C1.10964 2.50148 0.702148 3.51421 0.702148 4.57018V11.8299C0.702148 12.8859 1.10964 13.8986 1.83497 14.6453C2.56031 15.392 3.54408 15.8114 4.56986 15.8114H17.43C18.4558 15.8114 19.4396 15.392 20.1649 14.6453C20.8902 13.8986 21.2977 12.8859 21.2977 11.8299V4.57018C21.2977 3.51421 20.8902 2.50148 20.1649 1.75479C19.4396 1.00811 18.4558 0.588623 17.43 0.588623ZM11.8895 9.67984L9.40451 11.163V5.23377L11.8992 6.71358L14.3906 8.19671L11.8895 9.67984Z" fill="black"/>
</svg>
