<svg xmlns="http://www.w3.org/2000/svg" xmlns:xlink="http://www.w3.org/1999/xlink" viewBox="0 0 22.04 15.15"><defs><style>.cls-1{fill:none;}.cls-2{clip-path:url(#clip-path);}.cls-3{fill-rule:evenodd;}</style><clipPath id="clip-path" transform="translate(-3.98 -7.42)"><rect class="cls-1" width="30" height="30"/></clipPath></defs><g id="圖層_2" data-name="圖層 2"><g id="圖層_1-2" data-name="圖層 1"><g class="cls-2"><path class="cls-3" d="M14.51,11.76a.69.69,0,0,1,1,0h0l2.75,2.75a.69.69,0,0,1,0,1,.68.68,0,0,1-1,0l-1.58-1.58v5.22a.69.69,0,0,1-1.38,0V13.91l-1.58,1.58a.68.68,0,0,1-1,0,.69.69,0,0,1,0-1Z" transform="translate(-3.98 -7.42)"/><path d="M10.05,9.27A7.68,7.68,0,0,1,15,7.42a7.08,7.08,0,0,1,7.12,6.31,4.44,4.44,0,0,1-.66,8.85H9.19A5.07,5.07,0,0,1,8,12.55,5.81,5.81,0,0,1,10.05,9.27Zm.9,1.05a4.07,4.07,0,0,0-1.59,2.83v.61l-.61.07a3.69,3.69,0,0,0,.44,7.37H21.46a3.07,3.07,0,1,0,0-6.14h-.69v-.69A5.67,5.67,0,0,0,15,8.8,6.22,6.22,0,0,0,11,10.32Z" transform="translate(-3.98 -7.42)"/></g></g></g></svg>